<?xml version="1.0" encoding="utf-8"?>
<!-- Svg Vector Icons : http://www.onlinewebfonts.com/icon -->
<!DOCTYPE svg PUBLIC "-//W3C//DTD SVG 1.1//EN" "http://www.w3.org/Graphics/SVG/1.1/DTD/svg11.dtd">
<svg version="1.1" xmlns="http://www.w3.org/2000/svg" xmlns:xlink="http://www.w3.org/1999/xlink" x="0px" y="0px" viewBox="0 0 256 256" enable-background="new 0 0 256 256" xml:space="preserve">
<metadata> Svg Vector Icons : http://www.onlinewebfonts.com/icon </metadata>
<g><g><g><path fill="#000000" d="M127.2,24c-2.6,0.6-4.2,1.8-5.3,4.3c-1,2.1-1.1,3.5-1.1,18.1v15.8l-16.4,0.2c-15.2,0.2-16.6,0.2-18.3,1.3c-1.9,1.1-4.1,4.8-4.1,6.8s2.2,5.6,4.1,6.8c1.7,1.1,3.1,1.1,18.3,1.3l16.4,0.2v15.8c0,12.2,0.2,16.2,0.8,17.6c2.3,5.5,8.9,6.8,13.1,2.5l1.6-1.7l0.2-17.2l0.2-17.1h15.6c8.6,0,16.5-0.3,17.6-0.6c3.2-0.9,5.2-3.4,5.4-6.9c0.2-2.3-0.1-3.4-0.9-4.8c-2.4-3.8-2.4-3.8-21-4l-16.8-0.2V45.8c0-17.2-0.1-18-2.7-20.4C132.3,24.2,129.4,23.5,127.2,24z"/><path fill="#000000" d="M13.7,101.8c-5.2,3.5-4.9,10.6,0.7,13.4c1.6,0.8,3.4,1,10.2,1h8.2l0.1,45.4c0,43.6,0.1,45.6,1.1,48.6c2,5.9,4.2,9.1,9.3,14c2.9,2.8,10.3,6.6,14.4,7.3c4.3,0.8,138.9,0.8,143.3-0.1c10.9-2,21.3-11.8,24.1-22.7c0.7-2.9,0.8-9.7,0.8-47.9v-44.6h6.9c5.4,0,7.3-0.2,8.8-1c5.6-2.8,5.9-10,0.7-13.4l-2-1.3l-40.9,0.1l-41,0.2l-1.7,1.6c-3.1,3-3.6,7.5-1.1,10.7c2.4,3,2.8,3.1,29.7,3.1h24.8v44.1c0,48.5,0.1,47.9-3.4,51.8c-0.9,1.1-2.9,2.4-4.3,3c-2.5,1-6.4,1-73.5,1H57.9l-3.1-1.7c-2.4-1.4-3.4-2.4-4.6-4.7l-1.6-2.9v-45.2v-45.2h24.5c20,0,24.8-0.2,26.1-0.8c5.8-3,6.1-11,0.6-14c-1.8-1-4.3-1-43-1H15.6L13.7,101.8z"/><path fill="#000000" d="M62.2,137.1v7.3h8.2h8.2l-0.2-7.2l-0.2-7.1l-8-0.2l-8-0.2V137.1z"/><path fill="#000000" d="M92,137.1v7.3h7.9h7.9v-7.3v-7.3h-7.9H92V137.1z"/><path fill="#000000" d="M121.8,137.1v7.3h7.9h7.9v-7.3v-7.3h-7.9h-7.9V137.1z"/><path fill="#000000" d="M151.1,137.1v7.3h7.9h7.9v-7.3v-7.3h-7.9h-7.9V137.1z"/><path fill="#000000" d="M180.9,137.1v7.3h7.9h7.9v-7.3v-7.3h-7.9h-7.9V137.1z"/><path fill="#000000" d="M62.6,158.8c-0.2,0.2-0.4,3.5-0.4,7.4v6.9h8.2h8.2l-0.2-7.2l-0.2-7.1l-7.7-0.2C66.4,158.5,62.8,158.6,62.6,158.8z"/><path fill="#000000" d="M92,165.8v7.3h7.9h7.9v-7.3v-7.3h-7.9H92V165.8z"/><path fill="#000000" d="M121.8,165.8v7.3h7.9h7.9l-0.2-7.2l-0.2-7.1l-7.7-0.2l-7.8-0.2V165.8z"/><path fill="#000000" d="M151.5,158.8c-0.2,0.2-0.4,3.5-0.4,7.3v6.9h7.9h7.9v-7.3v-7.3h-7.5C155.2,158.4,151.6,158.6,151.5,158.8z"/><path fill="#000000" d="M180.9,165.8v7.3h7.9h7.9v-7.3v-7.3h-7.9h-7.9V165.8z"/><path fill="#000000" d="M62.3,194.8l0.2,7.2h7.9h7.9l0.2-7.2l0.2-7.1h-8.2h-8.2L62.3,194.8z"/><path fill="#000000" d="M92,195v7.3h7.9h7.9V195v-7.3h-7.9H92V195z"/><path fill="#000000" d="M121.8,195v7.3h7.9h7.9V195v-7.3h-7.9h-7.9V195z"/><path fill="#000000" d="M151.1,195v7.3h7.9h7.9V195v-7.3h-7.9h-7.9V195z"/><path fill="#000000" d="M180.9,195v7.3h7.9h7.9V195v-7.3h-7.9h-7.9V195z"/></g></g></g>
</svg>