<?xml version="1.0" encoding="utf-8"?>
<!-- Svg Vector Icons : http://www.onlinewebfonts.com/icon -->
<!DOCTYPE svg PUBLIC "-//W3C//DTD SVG 1.1//EN" "http://www.w3.org/Graphics/SVG/1.1/DTD/svg11.dtd">
<svg version="1.1" xmlns="http://www.w3.org/2000/svg" xmlns:xlink="http://www.w3.org/1999/xlink" x="0px" y="0px" viewBox="0 0 256 256" enable-background="new 0 0 256 256" xml:space="preserve">
<metadata> Svg Vector Icons : http://www.onlinewebfonts.com/icon </metadata>
<g><g><path fill="#000000" d="M128.4,17.6"/><path fill="#000000" d="M128.4,221.5"/><path fill="#000000" d="M128.4,64.4c-21.4,0-38.8,17.4-38.8,38.8c0,21.4,17.4,38.8,38.8,38.8c21.4,0,38.8-17.4,38.8-38.8C167.2,81.8,149.8,64.4,128.4,64.4z M128.4,133c-16.4,0-29.8-13.3-29.8-29.8c0-16.4,13.4-29.8,29.8-29.8c16.4,0,29.8,13.4,29.8,29.8C158.2,119.6,144.8,133,128.4,133z"/><path fill="#000000" d="M128.4,71.6"/><path fill="#000000" d="M128,10C62.9,10,10,62.9,10,128c0,65.1,52.9,118,118,118c65.1,0,118-52.9,118-118C246,62.9,193.1,10,128,10z M69,217.2c2.6-30.6,28.2-54.6,59.5-54.6c31,0,56.6,23.7,59.5,54C170.8,228.3,150.2,235,128,235C106.2,235,85.9,228.5,69,217.2z M196.2,210.5c-5.7-32.3-33.8-56.8-67.7-56.8c-34.1,0-62.4,24.9-67.8,57.5C36.4,191.5,21,161.5,21,128C21,69,69,21,128,21c59,0,107,48,107,107C235,161.1,219.9,190.8,196.2,210.5z"/></g></g>
</svg>