<?xml version="1.0" encoding="utf-8"?>
<!-- Svg Vector Icons : http://www.onlinewebfonts.com/icon -->
<!DOCTYPE svg PUBLIC "-//W3C//DTD SVG 1.1//EN" "http://www.w3.org/Graphics/SVG/1.1/DTD/svg11.dtd">
<svg version="1.1" xmlns="http://www.w3.org/2000/svg" xmlns:xlink="http://www.w3.org/1999/xlink" x="0px" y="0px" viewBox="0 0 256 256" enable-background="new 0 0 256 256" xml:space="preserve">
<metadata> Svg Vector Icons : http://www.onlinewebfonts.com/icon </metadata>
<g><g><g><path fill="#000000" d="M36.5,10.6c-0.1,0.3-0.1,3.6-0.1,7.1l0.1,6.5l19.2,0.1l19.2,0.1V121v96.5l72.3-0.1l72.2-0.1v-7v-7l-65-0.1L89.4,203v-96.5V10H63.1C41.9,10,36.7,10.1,36.5,10.6z"/><path fill="#000000" d="M99.1,137.9v55.5h24.1h24.1v-37.1v-37.1l-4-0.3c-2.2-0.1-4.4-0.4-4.8-0.5c-0.8-0.2-0.9-1.5-0.9-18.1V82.4h-19.3H99.1V137.9L99.1,137.9z"/><path fill="#000000" d="M162.1,82.7c-0.2,0.1-0.3,8.2-0.3,17.8c0,16.3,0,17.5-0.8,17.8c-0.5,0.1-2.7,0.4-4.8,0.5l-4,0.3v37.1v37.1h24.1h24.1v-55.5V82.4h-19C171,82.4,162.3,82.5,162.1,82.7z"/><path fill="#000000" d="M82.4,223.5c-4.6,2.3-7,5.9-7,10.7c0,6.9,4.9,11.8,11.7,11.8c6.9,0,11.9-4.9,11.9-11.8c0-6.2-4.8-11.2-11.3-11.7C85.4,222.4,84.4,222.5,82.4,223.5z"/><path fill="#000000" d="M203.6,223.1c-2.7,1-5.2,3.1-6.6,5.8c-3.1,6-0.2,13.8,5.9,16.3c2.6,1.1,7.3,1,9.9-0.2c4.3-2.1,7.4-7.7,6.7-12.2c-0.5-2.8-2.5-6.4-4.4-7.8C211.8,222.4,207.4,221.7,203.6,223.1z"/></g></g></g>
</svg>