<?xml version="1.0" encoding="utf-8"?>
<!-- Svg Vector Icons : http://www.onlinewebfonts.com/icon -->
<!DOCTYPE svg PUBLIC "-//W3C//DTD SVG 1.1//EN" "http://www.w3.org/Graphics/SVG/1.1/DTD/svg11.dtd">
<svg version="1.1" xmlns="http://www.w3.org/2000/svg" xmlns:xlink="http://www.w3.org/1999/xlink" x="0px" y="0px" viewBox="0 0 256 256" enable-background="new 0 0 256 256" xml:space="preserve">
<metadata> Svg Vector Icons : http://www.onlinewebfonts.com/icon </metadata>
<g><g><g><path fill="#000000" d="M25.5,10.2c-5,0.2-6,0.4-8.1,1.7c-2.9,1.7-4.9,4-6.3,7.1c-1,2.3-1,4.1-1,109.2c0,105.4,0,106.8,1,109.1c1.4,3.2,3.4,5.5,6.3,7.2l2.4,1.4l107.3,0.2c121.1,0.2,110.3,0.5,114.8-4.1c4.6-4.5,4.2,6.2,4.1-114.8l-0.2-107.3l-1.4-2.4c-1.7-2.9-4-4.9-7.1-6.3c-2.3-1-4-1-104.2-1.1C77,10,28.7,10,25.5,10.2z M231.5,128.1v103.4H128.1H24.7V128.1V24.7h103.4h103.4V128.1z"/><path fill="#000000" d="M47,109.7v62.6h81h81v-62.6V47.1h-81H47V109.7z M201.9,95.7v41.5l-12.1-12.1c-10.7-10.6-12.2-12-13.1-11.5c-0.5,0.3-6.4,3.2-13,6.4l-12.1,5.9l-21.2-21.9C118.7,92,109,82.1,108.8,82.1c-0.2,0-11.5,12.5-25.1,27.8c-13.6,15.3-25.8,28.9-27,30.3l-2.3,2.5V98.6V54.3h73.8h73.8V95.7z M134.4,121.2c-0.2,0.1-5.4-1.6-11.5-3.7l-11.2-3.8l-6.3,6.2l-6.3,6.3L88,128.9c-6.1,1.6-11.2,2.8-11.2,2.6c-0.1-0.1,7.2-8.4,16.1-18.4l16.2-18.3l12.8,13.1C129,115.2,134.6,121.2,134.4,121.2z"/></g></g></g>
</svg>